<?xml version="1.0" standalone="no"?><!DOCTYPE svg PUBLIC "-//W3C//DTD SVG 1.1//EN" "http://www.w3.org/Graphics/SVG/1.1/DTD/svg11.dtd"><svg t="1557801165935" class="icon" style="" viewBox="0 0 1024 1024" version="1.1" xmlns="http://www.w3.org/2000/svg" p-id="1085" xmlns:xlink="http://www.w3.org/1999/xlink" width="200" height="200"><defs><style type="text/css"></style></defs><path d="M472.105 490.446h22.117V276.237c0-118.312-94.086-214.216-210.15-214.216-116.054 0-210.145 95.904-210.145 214.216 0 118.311 94.08 214.214 210.145 214.214h188.033v-0.005zM118.167 276.237c0-93.402 74.281-169.119 165.905-169.119 91.634 0 165.905 75.717 165.905 169.119V445.36H284.072c-91.623 0-165.905-75.717-165.905-169.123zM449.978 580.65v169.119c0 93.395-74.271 169.112-165.905 169.112-91.624 0-165.905-75.717-165.905-169.112 0-93.402 74.281-169.119 165.905-169.119h165.905zM73.928 749.769c0 118.306 94.08 214.214 210.145 214.214s210.155-95.908 210.155-214.214V535.548H284.073c-116.054 0-210.145 95.904-210.145 214.216v0.005z m508.778-169.124h165.905c91.634 0 165.916 75.722 165.916 169.124 0 93.395-74.281 169.112-165.916 169.112-91.624 0-165.905-75.717-165.905-169.112V580.645z m165.906 383.339c116.064 0 210.155-95.908 210.155-214.214 0-118.308-94.091-214.216-210.155-214.216H538.467V749.77c0 118.305 94.086 214.214 210.145 214.214z m-165.9-518.634V276.237c0-93.402 74.281-169.119 165.911-169.119s165.911 75.717 165.911 169.119c0 93.401-74.281 169.123-165.911 169.123l-165.911-0.01z m376.06-169.118c0-118.311-94.086-214.216-210.145-214.216-116.065 0-210.155 95.904-210.155 214.216v214.214h210.155c116.054 0 210.145-95.903 210.145-214.214z m0 0" p-id="1086" fill="#e6e6e6"></path></svg>