<?xml version="1.0" standalone="no"?><!DOCTYPE svg PUBLIC "-//W3C//DTD SVG 1.1//EN" "http://www.w3.org/Graphics/SVG/1.1/DTD/svg11.dtd"><svg t="1590044776512" class="icon" viewBox="0 0 1024 1024" version="1.1" xmlns="http://www.w3.org/2000/svg" p-id="6755" xmlns:xlink="http://www.w3.org/1999/xlink" width="200" height="200"><defs><style type="text/css"></style></defs><path d="M496.64 956.416l-106.496-100.352L429.056 634.88l130.048 0 29.696 222.208L496.64 956.416zM433.152 835.584l61.44 59.392 55.296-57.344-21.504-161.792-70.656 0L433.152 835.584z" p-id="6756" fill="#ffffff"></path><path d="M642.048 566.272c92.16-51.2 153.6-147.456 153.6-260.096 0-163.84-132.096-296.96-293.888-296.96s-293.888 132.096-293.888 296.96 132.096 296.96 293.888 296.96c4.096 0 6.144 0 10.24 0l2.048 0c236.544 0 441.344 168.96 458.752 360.448L486.4 963.584 53.248 963.584c10.24-128 94.208-240.64 222.208-307.2 12.288-6.144 17.408-21.504 10.24-33.792s-21.504-17.408-33.792-10.24C96.256 688.128 0 830.464 0 989.184l0 25.6 25.6 0 460.8 0 512 0 25.6 0 0-25.6C1024 792.576 858.112 617.472 642.048 566.272zM256 306.176C256 172.032 364.544 62.464 499.712 62.464s243.712 108.544 243.712 242.688S633.856 548.864 499.712 548.864 256 440.32 256 306.176z" p-id="6757" fill="#ffffff"></path></svg>