<?xml version="1.0" standalone="no"?><!DOCTYPE svg PUBLIC "-//W3C//DTD SVG 1.1//EN" "http://www.w3.org/Graphics/SVG/1.1/DTD/svg11.dtd"><svg t="1590044162221" class="icon" viewBox="0 0 1025 1024" version="1.1" xmlns="http://www.w3.org/2000/svg" p-id="6597" xmlns:xlink="http://www.w3.org/1999/xlink" width="200.1953125" height="200"><defs><style type="text/css"></style></defs><path d="M448 405.333333C448 334.640885 390.692448 277.333333 320 277.333333 249.307552 277.333333 192 334.640885 192 405.333333 192 476.025781 249.307552 533.333333 320 533.333333 390.692448 533.333333 448 476.025781 448 405.333333ZM243.2 405.333333C243.2 362.917865 277.584531 328.533333 320 328.533333 362.415469 328.533333 396.8 362.917865 396.8 405.333333 396.8 447.748802 362.415469 482.133333 320 482.133333 277.584531 482.133333 243.2 447.748802 243.2 405.333333Z" p-id="6598" fill="#ffffff"></path><path d="M130.808907 668.800009 130.808907 695.466675 156.69817 695.466675 328.38486 695.466675 519.147849 695.466675 545.037111 695.466675 545.037111 668.800009C545.037111 569.359543 449.055298 482.133342 337.923008 482.133342 331.301828 482.133342 324.715537 482.413289 318.179253 482.969794 303.929606 484.183021 293.332828 497.06503 294.510686 511.742569 295.688544 526.420105 300.838539 531.468314 315.088186 530.255087 320.205801 529.819369 332.725555 535.466675 337.923008 535.466675 421.801824 535.466675 493.258586 580.78224 493.258586 642.133342L328.38486 642.133342 182.587432 642.133342C182.587432 623.249623 202.863759 588.315287 240.911324 563.27005 252.959405 555.339264 256.484561 538.849914 248.784979 526.440051 241.085397 514.030191 225.076753 510.399181 213.028673 518.329967 160.669895 552.795721 130.808907 604.231546 130.808907 668.800009Z" p-id="6599" fill="#ffffff"></path><path d="M128.186836 824.380951C85.627327 824.380951 51.233488 790.647147 51.233488 748.813585L51.233488 178.285714 896.718133 178.285714C939.035972 178.285714 973.436282 212.088034 973.436282 253.608631L973.436282 747.054095C973.436282 760.940111 984.905289 772.196951 999.053026 772.196951 1013.200762 772.196951 1024.669769 760.940111 1024.669769 747.054095L1024.669769 253.608631C1024.669769 184.328784 967.344489 128 896.718133 128L25.616744 128 0 128 0 153.142857 0 748.813585C0 818.427115 57.33993 874.666667 128.186836 874.666667L912.213943 874.666667C926.361679 874.666667 937.830686 863.409826 937.830686 849.52381 937.830686 835.637792 926.361679 824.380951 912.213943 824.380951L128.186836 824.380951Z" p-id="6600" fill="#ffffff"></path><path d="M871.607934 405.333333C885.0793 405.333333 896 395.782074 896 384 896 372.217926 885.0793 362.666667 871.607934 362.666667L579.058733 362.666667C565.587366 362.666667 554.666667 372.217926 554.666667 384 554.666667 395.782074 565.587366 405.333333 579.058733 405.333333L871.607934 405.333333Z" p-id="6601" fill="#ffffff"></path><path d="M807.058613 512C820.833361 512 832 502.44874 832 490.666667 832 478.884593 820.833361 469.333333 807.058613 469.333333L579.608053 469.333333C565.833306 469.333333 554.666667 478.884593 554.666667 490.666667 554.666667 502.44874 565.833306 512 579.608053 512L807.058613 512Z" p-id="6602" fill="#ffffff"></path></svg>