<?xml version="1.0" standalone="no"?><!DOCTYPE svg PUBLIC "-//W3C//DTD SVG 1.1//EN" "http://www.w3.org/Graphics/SVG/1.1/DTD/svg11.dtd"><svg t="1555293854175" class="icon" style="" viewBox="0 0 1024 1024" version="1.1" xmlns="http://www.w3.org/2000/svg" p-id="1303" xmlns:xlink="http://www.w3.org/1999/xlink" width="24" height="24"><defs><style type="text/css"></style></defs><path d="M512 1024C229.2224 1024 0 794.7776 0 512S229.2224 0 512 0s512 229.2224 512 512-229.2224 512-512 512z m0-998.4C243.3792 25.6 25.6 243.3792 25.6 512s217.7792 486.4 486.4 486.4 486.4-217.7792 486.4-486.4S780.6208 25.6 512 25.6z" fill="#ffffff" p-id="1304"></path><path d="M512 1024C229.2224 1024 0 794.7776 0 512S229.2224 0 512 0s512 229.2224 512 512-229.2224 512-512 512z m0-998.4C243.3792 25.6 25.6 243.3792 25.6 512s217.7792 486.4 486.4 486.4 486.4-217.7792 486.4-486.4S780.6208 25.6 512 25.6z" fill="#ffffff" p-id="1305"></path><path d="M813.0304 580.8128c-3.1744 16.2816-13.2608 26.7008-25.5488 26.4704h-2.56c-42.2144 0-76.544 33.2032-76.544 74.0096 0 13.44 6.6048 28.1856 6.656 28.3392a32.8192 32.8192 0 0 1-11.6992 40.448l-0.7168 0.4864-74.88 40.0128-0.768 0.3328c-4.2752 1.792-8.96 2.688-13.9008 2.688h-0.0256c-10.7008 0-21.12-4.2752-27.8272-11.4432-9.1648-9.728-38.1952-34.9696-61.952-34.9696-23.6032 0-53.0688 25.3952-61.5424 34.304-6.7072 7.04-17.0496 11.2384-27.648 11.2384-5.0432 0-9.8304-0.9216-14.1824-2.7648l-0.7424-0.3328-72.2176-39.0656-0.7168-0.4608a32.896 32.896 0 0 1-11.648-40.4992c0.0512-0.1024 6.656-14.848 6.656-28.3136 0-40.8064-34.3296-74.0096-76.544-74.0096H261.6576c-12.1088 0-21.9392-10.3936-25.088-26.4704-0.256-1.28-6.1696-31.7696-6.1696-55.7824 0-24.0128 5.9136-54.5024 6.1696-55.808 3.1744-16.2816 13.2352-26.7264 25.5488-26.4448h2.56c42.2144 0 76.544-33.2032 76.544-74.0352 0-13.44-6.6048-28.1856-6.6816-28.3392a32.8192 32.8192 0 0 1 11.7504-40.448l0.7424-0.4864 76.2112-40.4736 0.7936-0.3328c4.3008-1.7664 8.9856-2.6624 13.9776-2.6624 10.5728 0 20.9408 4.1216 27.6992 11.008 9.0368 9.1392 37.5552 32.896 60.6208 32.896 22.8608 0 51.2-23.296 60.1856-32.256 6.7328-6.7584 17.024-10.8032 27.4944-10.8032 5.0944 0 9.8816 0.9216 14.2336 2.7648l0.768 0.3072 73.6256 39.552 0.7168 0.4864c13.184 8.8832 18.176 26.2912 11.6736 40.4992-0.0512 0.1024-6.656 14.848-6.656 28.288 0 40.832 34.3296 74.0352 76.544 74.0352h2.56c12.288-0.256 22.3744 10.1632 25.5488 26.4448 0.256 1.28 6.1696 31.7696 6.1696 55.808 0 24.0128-5.9136 54.5024-6.1696 55.7824zM779.0848 476.16c-58.624-2.944-105.3952-49.9968-105.3952-107.4176 0-19.2 7.7568-37.632 9.4208-41.3952l-68.8128-36.9664-0.2816-0.0256a5.632 5.632 0 0 0-2.6112 0.6656c-1.1776 1.152-11.136 10.9312-25.472 20.6592-21.1968 14.4384-41.2416 21.76-59.5968 21.76-18.5088 0-38.7328-7.4752-60.0832-22.1696a193.2288 193.2288 0 0 1-25.5744-21.0688 5.5808 5.5808 0 0 0-2.6624-0.6656h-0.256l-71.2448 37.8368c1.6896 3.84 9.3952 22.2208 9.3952 41.3696 0 57.4208-46.7712 104.4736-105.3952 107.4176-0.8448 4.5056-5.4272 29.8496-5.4272 48.8704 0 19.0208 4.5824 44.3392 5.4272 48.8704 58.624 2.944 105.3952 49.9968 105.3952 107.392 0 19.2768-7.7824 37.7344-9.4464 41.4464l67.456 36.48h0.1536a4.864 4.864 0 0 0 2.2528-0.5632 195.5072 195.5072 0 0 1 25.856-21.9136c21.6064-15.3088 42.1632-23.0912 61.0816-23.0912 19.072 0 39.808 7.9104 61.5424 23.552 14.592 10.4704 24.704 20.9664 25.984 22.2976 0.3328 0.2048 1.28 0.5632 2.2528 0.5632h0.128l69.9392-37.376c-1.6896-3.7888-9.4208-22.1952-9.4208-41.3952 0-57.3952 46.7712-104.448 105.3952-107.392 0.8448-4.5056 5.4272-29.8496 5.4272-48.8704 0-19.0208-4.5824-44.3392-5.4272-48.8704z m-255.5648 147.072c-56.2176 0-101.9648-44.2112-101.9648-98.5856 0-54.3488 45.7472-98.56 101.9648-98.56 56.192 0 101.9392 44.2112 101.9392 98.56 0 54.3744-45.7472 98.5856-101.9392 98.5856z m0-163.6352c-37.0944 0-67.2768 29.184-67.2768 65.0496s30.1824 65.0496 67.2768 65.0496 67.2512-29.184 67.2512-65.0496-30.1568-65.0496-67.2512-65.0496z" fill="#ffffff" p-id="1306"></path></svg>