<?xml version="1.0" standalone="no"?><!DOCTYPE svg PUBLIC "-//W3C//DTD SVG 1.1//EN" "http://www.w3.org/Graphics/SVG/1.1/DTD/svg11.dtd"><svg t="1535095381019" class="icon" style="" viewBox="0 0 1024 1024" version="1.1" xmlns="http://www.w3.org/2000/svg" p-id="11584" xmlns:xlink="http://www.w3.org/1999/xlink" width="200" height="200"><defs><style type="text/css"></style></defs><path d="M770.276345 493.547743l-62.723553 0c0 25.841551-7.377014 51.635007-14.753005 73.813123l44.26004 44.26004C759.237941 578.401316 770.276345 537.829272 770.276345 493.547743" p-id="11585" fill="#333333"></path><path d="M622.698195 500.92271l0-7.326872 0-221.418902c0-62.677505-47.974641-110.650099-110.650099-110.650099-62.7256 0-110.698195 47.972595-110.698195 110.650099l0 7.40055L622.698195 500.92271z" p-id="11586" fill="#333333"></path><path d="M227.927129 198.410885l-47.970548 47.995107 221.394343 221.347271 0 25.794479c0 62.748113 47.972595 110.672612 110.698195 110.672612 7.327896 0 14.754029 0 25.794479-3.665483l62.7256 62.701041c-25.843598 11.089569-55.350632 18.442024-84.806501 18.442024-103.32118 0-195.551768-77.478606-195.551768-188.151217l-66.438155 0c0 125.425617 99.607602 228.771357 221.345224 247.187799l0 121.737622 73.765027 0 0-121.737622c33.219589-3.712555 66.438155-18.416442 92.28073-33.218566l154.907069 154.956188 47.974641-47.971571L227.927129 198.410885z" p-id="11587" fill="#333333"></path></svg>