<?xml version="1.0" standalone="no"?><!DOCTYPE svg PUBLIC "-//W3C//DTD SVG 1.1//EN" "http://www.w3.org/Graphics/SVG/1.1/DTD/svg11.dtd"><svg class="icon" width="200px" height="200.00px" viewBox="0 0 1024 1024" version="1.1" xmlns="http://www.w3.org/2000/svg"><path fill="#222" d="M204.8 520.192a20.48 20.48 0 0 0-13.76256 35.6352l119.1936 108.09344a20.48 20.48 0 1 0 27.52512-30.35136L257.88416 561.152h135.9872a20.48 20.48 0 0 0 20.48-20.48V238.96064c0-52.8384 43.33568-95.60064 97.64864-95.60064 53.8624 0 97.6896 43.17184 97.6896 95.60064a20.48 20.48 0 1 0 40.96 0c0-75.20256-62.30016-136.56064-138.6496-136.56064-76.8 0-138.6496 60.90752-138.6496 136.56064V520.192H204.8z m180.92032 156.8768a20.48 20.48 0 1 0-27.48416 30.3104l140.00128 126.976a20.48 20.48 0 0 0 27.52512 0l162.48832-147.29216a20.48 20.48 0 1 0-27.52512-30.35136L512 791.552 385.72032 677.0688z m264.92928-147.53792V308.55168a20.48 20.48 0 1 0-40.96 0V540.672a20.48 20.48 0 0 0 20.48 20.48h135.9872l-60.70272 55.00928a20.48 20.48 0 0 0 27.52512 30.3104l99.9424-90.64448A20.48 20.48 0 0 0 819.2 520.192h-168.5504v9.33888zM942.08 880.64H409.6a20.48 20.48 0 1 0 0 40.96h532.48a20.48 20.48 0 1 0 0-40.96z m-614.4 0H286.72a20.48 20.48 0 1 0 0 40.96h40.96a20.48 20.48 0 1 0 0-40.96z m-122.88 0H81.92a20.48 20.48 0 1 0 0 40.96h122.88a20.48 20.48 0 1 0 0-40.96z" /></svg>