<?xml version="1.0" standalone="no"?><!DOCTYPE svg PUBLIC "-//W3C//DTD SVG 1.1//EN" "http://www.w3.org/Graphics/SVG/1.1/DTD/svg11.dtd"><svg class="icon" width="200px" height="200.00px" viewBox="0 0 1024 1024" version="1.1" xmlns="http://www.w3.org/2000/svg"><path fill="#222" d="M894.2 512.4C803.6 408 678.4 288 512 288c-67.2 0-128.8 19-193.8 59.6C263.4 382 207.2 430.4 130 510l-2 2 13.4 13.8C251.6 638.6 346.8 736 512 736c73 0 143.8-23.8 216.4-72.8 61.8-41.8 114.4-94.8 156.6-137.6l11-11-1.8-2.2zM512 320c66.2 0 129.8 19 194.4 61.2 47.8 31.2 94.8 73.4 147.4 132.2C777.2 590.8 662.2 704 512 704c-68.4 0-128.4-16.8-188.4-56.4C268.6 611.4 219 561 171.2 512 289.4 392.6 388 320 512 320zM512 672c88.2 0 160-71.8 160-160s-71.8-160-160-160-160 71.8-160 160 71.8 160 160 160z m0-287.4c70.4 0 128 57.2 128 127.4s-57.6 127.4-128 127.4S384.2 582.2 384.2 512 441.6 384.6 512 384.6zM576 512c0 35-28.8 64-63.6 64S448 545.6 448 510.6s31.6-62.6 64-62.6v-32c-53 0-95.8 43.2-95.8 96.4s43 96.2 95.8 96.2 96-43.2 96-96.2v-0.4h-32z" /></svg>